<svg style="" width="18.652344" height="14.282227" version="1.1" xmlns="http://www.w3.org/2000/svg">
<path d="M17.675781 6.250000 L3.515625 6.250000 L8.007812 1.757812 C8.203126 1.546223 8.300781 1.302085 8.300781 1.025391 C8.300781 0.748697 8.203126 0.504558 8.007812 0.292969 C7.796223 0.097655 7.552085 -0.000000 7.275391 -0.000000 C6.998697 -0.000000 6.754558 0.097655 6.542969 0.292969 L0.292969 6.542969 C0.244140 6.608073 0.195313 6.665039 0.146484 6.713867 C0.097656 6.762696 0.073242 6.811523 0.073242 6.860352 C0.024414 6.974284 0.000000 7.104491 0.000000 7.250977 C0.000000 7.397462 0.024414 7.543945 0.073242 7.690430 C0.122071 7.755534 0.158691 7.812500 0.183105 7.861328 C0.207520 7.910156 0.244140 7.958984 0.292969 8.007812 L6.542969 14.257812 C6.640625 14.371745 6.746419 14.453125 6.860352 14.501953 C6.974284 14.550781 7.112629 14.575195 7.275391 14.575195 C7.421876 14.575195 7.552083 14.550781 7.666016 14.501953 C7.779948 14.453125 7.893880 14.371745 8.007812 14.257812 C8.203126 14.046223 8.300781 13.802085 8.300781 13.525391 C8.300781 13.248697 8.203126 13.004558 8.007812 12.792969 L3.515625 8.325195 L17.675781 8.325195 C18.001304 8.325195 18.257649 8.231609 18.444824 8.044434 C18.632000 7.857258 18.725586 7.600913 18.725586 7.275391 C18.725586 6.966144 18.632000 6.717937 18.444824 6.530762 C18.257649 6.343586 18.001304 6.250000 17.675781 6.250000 Z M21.850586 17.700195" style="fill:black"/>
</svg>