<svg width="63" height="120" viewBox="0 0 63 120" fill="none" xmlns="http://www.w3.org/2000/svg">
<path d="M30.017 16.1673C31.2045 9.74217 32.8404 3.35868 34.8473 1.5471C35.9925 0.513335 39.2646 -1.40056 42.0458 1.65866C43.1756 2.90142 42.1186 6.21236 40.772 10.4299C40.2137 12.1787 39.6056 14.0835 39.083 16.0612C42.1615 16.5596 45.2641 17.5743 48.2752 19.0573C60.648 25.1512 61.6896 37.6741 62.345 51.4506C63.2424 70.3161 54.6778 81.873 40.9131 94.8052C36.2569 99.1798 31.1087 100.787 26.0747 102.358C20.3854 104.134 14.842 105.864 10.3194 111.493C9.30057 112.761 8.62083 114.434 8.00058 115.961C7.12043 118.128 6.36007 120 4.92053 120C2.46652 120 0.203833 112.783 0.0124558 107.566C-0.266803 99.9538 4.1967 93.1464 8.67205 86.3209C12.4573 80.548 16.251 74.7621 17.1907 68.4653C18.0511 62.6998 16.0875 57.7379 14.1281 52.7869C12.1364 47.7541 10.1492 42.7327 11.1374 36.8901C12.1688 30.7922 13.2615 28.7414 17.1907 23.9654C20.7294 19.6642 25.1807 17.1382 30.017 16.1673Z" fill="#dab500"/>
</svg>
