<svg width="151" height="47" viewBox="0 0 151 47" fill="none" xmlns="http://www.w3.org/2000/svg">
<path d="M53.2528 45.5968C55.1517 45.5111 55.4351 45.2028 55.4351 43.0902L55.197 23.3235V13.3888C55.197 10.0258 55.1347 6.65712 55.197 3.29986C55.2253 1.85533 54.6755 1.32432 53.4455 1.36429C51.5069 1.4271 49.5683 1.52987 47.6354 1.4899C46.3997 1.46706 45.7819 1.94667 45.7819 3.3284C45.7195 7.57066 45.5551 4.13917 45.5551 8.37571C45.5381 13.1946 45.5835 13.1946 41.1905 13.1946C38.498 13.1889 38.498 13.1889 38.4187 10.2256C38.277 5.16119 38.1182 7.76478 38.0105 2.69463C37.9822 1.48989 37.5287 1.0788 36.4461 1.12448C34.7002 1.21583 32.9487 1.12448 31.2028 1.12448C28.6918 1.12448 28.55 1.25009 28.55 3.97929C28.5614 12.361 28.5671 20.7428 28.6181 29.1302C28.6521 33.8349 28.7598 38.5454 28.8561 43.2501C28.9072 45.4598 29.4627 46.1049 31.4976 46.2077C33.2435 46.2934 34.9893 46.3048 36.7352 46.2591C38.9232 46.202 38.9232 46.1392 38.9232 43.764C38.8892 39.5845 38.8495 35.3937 38.7644 31.2028C38.7418 30.1294 38.5919 22.3223 39.694 21.9018C41.1905 21.3309 43.0951 21.0454 44.5122 21.6163C45.6175 21.6163 45.5495 29.3871 45.6175 31.2713C45.7649 35.4622 45.9859 39.6473 46.1333 43.8325C46.19 45.3113 46.7342 45.9907 48.1513 45.8537C49.8518 45.6996 51.5523 45.671 53.2528 45.5968Z" fill="#0B0B0C"/>
<path d="M20.501 46.0088C15.3088 45.9802 9.37401 46.3171 5.36648 42.4745C0.021216 37.3359 -0.233853 28.9599 0.094912 21.5887C0.582391 10.769 8.40473 2.35298 18.8005 1.73634C20.3083 1.64498 21.8161 1.58789 23.3352 1.52508C24.5766 1.4737 25.3078 1.96473 25.2454 3.49491C25.1774 5.2078 25.2171 6.92069 25.2057 8.63358C25.2057 9.70128 24.7693 10.4093 23.766 10.6148C22.0088 10.9688 20.2289 11.2429 18.4887 11.6882C14.2828 12.7788 10.8988 15.685 10.0996 20.3326C9.36268 24.6319 10.3886 30.7013 11.4146 32.574C13.1151 35.7143 16.2951 36.4908 21.0508 36.428C24.5142 37.216 24.4235 35.1662 24.6162 39.7796C24.6786 41.2241 24.8146 42.663 24.9507 44.1075C25.0697 45.3351 24.5992 45.9917 23.4712 46.0259C22.4793 46.0259 21.493 46.0088 20.501 46.0088Z" fill="#0B0B0C"/>
<path d="M71.709 4.13948V23.8491L71.59 43.0677C71.59 45.814 71.9074 46.2879 74.3901 46.3165C78.4997 46.3622 82.6093 46.2423 86.7131 46.208C87.467 46.2023 87.8752 45.8883 87.8468 45.0204C87.7599 42.078 87.6673 40.8467 87.5691 37.9005C87.5407 36.947 87.0589 36.5131 86.2087 36.5131C85.075 36.5473 83.3745 36.5131 82.2068 36.5131C81.0391 36.5131 80.2852 36.2733 80.2342 35.0343C80.1492 33.1444 80.2795 29.5245 80.2229 27.6117C80.2342 20.1892 80.3589 12.4926 80.1265 4.94452C80.0415 2.10683 79.7241 1.78138 77.0769 1.82135C75.8526 1.84419 74.7245 2.02691 73.4095 2.06116C72.0944 2.09542 71.709 2.80342 71.709 4.13948Z" fill="#0B0B0C"/>
<path d="M67.9452 44.2731C67.9055 37.5014 67.9452 30.7355 67.9452 23.9639L68.0982 15.9191C68.1095 14.4574 67.6447 13.8065 66.2957 13.8864C64.5101 13.9892 62.7133 14.132 60.9277 14.0749C59.4086 14.0292 59.0175 14.72 59.0175 16.2788C59.0572 22.5365 58.9721 16.3416 58.9721 22.6222C58.9438 29.8049 58.9268 36.9876 58.8814 44.1703C58.8701 45.5121 59.1422 46.3457 60.616 46.26C62.4524 46.1497 64.2934 46.1363 66.1313 46.2201C67.4634 46.2771 67.9452 45.8032 67.9452 44.2731Z" fill="#0B0B0C"/>
<path d="M66.1313 11.6992C67.4634 11.7563 67.9452 11.2767 67.9452 9.75219L68.0982 3.12901C68.1096 1.66735 67.6448 1.01645 66.2957 1.09639C64.5102 1.19916 62.7133 1.34191 60.9278 1.28482C59.4086 1.23914 59.0175 1.93 59.0175 3.49444C59.0572 9.74648 58.9722 3.58007 58.9722 9.83211C58.9688 11.3668 60.0667 11.7391 60.616 11.7334C62.4526 11.625 64.2935 11.6135 66.1313 11.6992Z" fill="#0B0B0C"/>
<path d="M99.7734 44.2731C99.7338 37.5014 99.7734 30.7355 99.7734 23.9639L99.9265 15.9191C99.9378 14.4574 99.473 13.8065 98.1239 13.8864C96.3384 13.9892 94.5415 14.132 92.756 14.0749C91.2369 14.0292 90.8458 14.72 90.8458 16.2788C90.8854 22.5365 90.8004 16.3416 90.8004 22.6222C90.7721 29.8049 90.755 36.9876 90.7097 44.1703C90.6983 45.5121 90.9704 46.3457 92.4442 46.26C94.2807 46.1497 96.1217 46.1363 97.9595 46.2201C99.2916 46.2771 99.7734 45.8032 99.7734 44.2731Z" fill="#0B0B0C"/>
<path d="M97.9596 11.6992C99.2916 11.7563 99.7734 11.2767 99.7734 9.75219L99.9265 3.12901C99.9378 1.66735 99.473 1.01645 98.1239 1.09639C96.3384 1.19916 94.5415 1.34191 92.756 1.28482C91.2369 1.23914 90.8458 1.93 90.8458 3.49444C90.8855 9.74648 90.8004 3.58007 90.8004 9.83211C90.7971 11.3668 91.8949 11.7391 92.4442 11.7334C94.2808 11.625 96.1218 11.6135 97.9596 11.6992Z" fill="#0B0B0C"/>
<path d="M123.7 46.1954C124.371 46.1652 124.471 46.0562 124.471 45.3096L124.387 38.324V34.813C124.387 33.6245 124.365 32.434 124.387 31.2475C124.397 30.737 124.203 30.5494 123.768 30.5635C123.083 30.5857 122.398 30.622 121.715 30.6079C121.278 30.5998 121.06 30.7693 121.06 31.2576C121.038 32.7568 120.98 31.5441 120.98 33.0414C120.974 34.7444 120.99 34.7444 119.437 34.7444C118.486 34.7424 118.486 34.7424 118.458 33.6951C118.408 31.9053 118.351 32.8254 118.313 31.0336C118.303 30.6079 118.143 30.4626 117.76 30.4787C117.143 30.511 116.524 30.4787 115.907 30.4787C115.02 30.4787 114.97 30.5231 114.97 31.4876C114.974 34.4498 114.976 37.4119 114.994 40.3761C115.006 42.0387 115.044 43.7034 115.078 45.3661C115.096 46.147 115.292 46.375 116.012 46.4113C116.629 46.4416 117.246 46.4456 117.863 46.4295C118.636 46.4093 118.636 46.3871 118.636 45.5477C118.624 44.0707 118.61 42.5896 118.58 41.1085C118.572 40.7292 118.519 37.9701 118.908 37.8215C119.437 37.6198 120.11 37.5189 120.611 37.7206C121.002 37.7206 120.978 40.4669 121.002 41.1328C121.054 42.6138 121.132 44.0929 121.184 45.5719C121.204 46.0945 121.396 46.3347 121.897 46.2862C122.498 46.2317 123.099 46.2217 123.7 46.1954Z" fill="#0B0B0C"/>
<path d="M112.125 46.3411C110.29 46.331 108.193 46.4501 106.777 45.0921C104.888 43.2761 104.798 40.316 104.914 37.711C105.086 33.8872 107.851 30.913 111.524 30.6951C112.057 30.6628 112.59 30.6426 113.127 30.6204C113.566 30.6023 113.824 30.7758 113.802 31.3166C113.778 31.9219 113.792 32.5272 113.788 33.1326C113.788 33.5099 113.634 33.7601 113.279 33.8328C112.658 33.9579 112.029 34.0547 111.414 34.2121C109.928 34.5975 108.732 35.6246 108.449 37.2671C108.189 38.7865 108.552 40.9314 108.914 41.5932C109.515 42.703 110.639 42.9775 112.32 42.9553C113.544 43.2337 113.512 42.5093 113.58 44.1397C113.602 44.6502 113.65 45.1587 113.698 45.6692C113.74 46.103 113.574 46.3351 113.175 46.3472C112.825 46.3472 112.476 46.3411 112.125 46.3411Z" fill="#0B0B0C"/>
<path d="M130.222 31.5449V38.5104L130.18 45.3023C130.18 46.2729 130.293 46.4403 131.17 46.4504C132.622 46.4666 134.075 46.4242 135.525 46.4121C135.791 46.4101 135.936 46.2991 135.926 45.9924C135.895 44.9525 135.862 44.5174 135.828 43.4762C135.817 43.1392 135.647 42.9859 135.347 42.9859C134.946 42.998 134.345 42.9859 133.932 42.9859C133.52 42.9859 133.253 42.9011 133.235 42.4632C133.205 41.7954 133.251 40.5161 133.231 39.8401C133.235 37.217 133.279 34.4969 133.197 31.8294C133.167 30.8266 133.055 30.7115 132.12 30.7257C131.687 30.7337 131.288 30.7983 130.823 30.8104C130.359 30.8225 130.222 31.0727 130.222 31.5449Z" fill="#0B0B0C"/>
<path d="M136.974 31.5449V38.5104L136.932 45.3023C136.932 46.2729 137.044 46.4403 137.921 46.4504C139.374 46.4666 140.826 46.4242 142.276 46.4121C142.543 46.4101 142.687 46.2991 142.677 45.9924C142.646 44.9525 142.614 44.5174 142.579 43.4762C142.569 43.1392 142.399 42.9859 142.098 42.9859C141.697 42.998 141.096 42.9859 140.684 42.9859C140.271 42.9859 140.005 42.9011 139.987 42.4632C139.957 41.7954 140.003 40.5161 139.983 39.8401C139.987 37.217 140.031 34.4969 139.949 31.8294C139.919 30.8266 139.806 30.7115 138.871 30.7257C138.438 30.7337 138.04 30.7983 137.575 30.8104C137.11 30.8225 136.974 31.0727 136.974 31.5449Z" fill="#0B0B0C"/>
<path d="M146.072 36.1658C146.302 35.4776 146.556 34.7894 146.769 34.0954C147.022 33.2438 147.258 32.3923 147.482 31.5292C147.504 31.3839 147.578 31.2521 147.692 31.1602C147.805 31.0683 147.948 31.023 148.093 31.0334C148.703 31.0334 149.319 31.0334 149.929 31.0334C150.539 31.0334 150.603 31.1851 150.418 31.7566C149.843 33.5063 149.342 35.256 148.691 36.9473C147.39 40.3942 147.367 40.3767 147.385 44.1268C147.385 44.71 147.385 45.2583 147.385 45.824C147.385 46.2264 147.235 46.4072 146.895 46.4072C146.135 46.4072 145.37 46.4072 144.592 46.4072C144.259 46.4072 144.069 46.1798 144.051 45.824C143.996 45.2425 143.985 44.6576 144.017 44.0743C144.285 41.6961 143.952 39.2879 143.05 37.0756C142.319 35.2851 141.8 33.3897 141.161 31.5467C141.006 31.0859 141.115 30.8759 141.541 30.8701C142.451 30.8701 143.36 30.8701 144.27 30.8701C144.713 30.8701 144.846 31.2609 144.915 31.6516C145.203 32.9639 145.491 34.2761 145.761 35.5884C145.796 35.7634 145.842 35.9383 145.882 36.1133L146.072 36.1658Z" fill="#0B0B0C"/>
<path d="M128.892 45.7274C128.878 43.3343 128.892 40.9432 128.892 38.5501L128.946 35.707C128.95 35.1904 128.786 34.9604 128.309 34.9886C127.678 35.025 127.043 35.0754 126.412 35.0552C125.876 35.0391 125.737 35.2832 125.737 35.8341C125.751 38.0456 125.721 35.8563 125.721 38.0759C125.711 40.6143 125.705 43.1527 125.689 45.6911C125.685 46.1653 125.781 46.4599 126.302 46.4296C126.951 46.3906 127.602 46.3859 128.251 46.4155C128.722 46.4357 128.892 46.2682 128.892 45.7274Z" fill="#0B0B0C"/>
<path d="M128.252 34.2162C128.723 34.2364 128.893 34.0669 128.893 33.5281L128.947 31.1874C128.951 30.6709 128.787 30.4409 128.31 30.4691C127.679 30.5054 127.044 30.5559 126.413 30.5357C125.876 30.5196 125.738 30.7637 125.738 31.3166C125.752 33.5261 125.722 31.3469 125.722 33.5563C125.721 34.0987 126.109 34.2303 126.303 34.2283C126.952 34.1899 127.603 34.1859 128.252 34.2162Z" fill="#0B0B0C"/>
<path d="M147.96 24.7569L116.563 27.2578L106.705 27.292L105.175 12.7667V2.63785L115.934 1.91843L127.463 0.782216L147.11 0L148.64 7.62805V16.1925L147.96 24.7569Z" fill="#FA2B04"/>
<path d="M112.569 15.7036C112.569 16.0489 112.569 16.4006 112.569 16.7522C112.651 19.0605 112.721 21.3688 112.835 23.6771C112.835 24.3165 112.702 24.5211 112.137 24.5211C111.441 24.5208 110.745 24.5657 110.055 24.6554C109.484 24.7321 109.249 24.4444 109.204 23.8945C109.134 22.9737 109.077 22.0594 109.026 21.1386C108.781 16.262 108.538 11.379 108.296 6.48967C108.239 5.39627 108.296 5.26199 109.331 5.13411C110.017 5.04459 110.715 5.0318 111.407 4.94868C111.636 4.91083 111.872 4.96065 112.067 5.08839C112.262 5.21613 112.402 5.41257 112.461 5.63923C113.457 7.90915 114.486 10.1599 115.501 12.417C115.571 12.5769 115.66 12.7175 115.825 13.0564C115.825 12.6408 115.825 12.417 115.825 12.174C115.768 10.1599 115.704 8.14574 115.66 6.1252C115.66 5.10213 115.831 4.90391 116.739 4.89751C117.33 4.89751 117.926 4.85276 118.517 4.82719C119.342 4.79522 119.488 4.94227 119.532 5.83745L120.446 22.7691C120.446 22.9034 120.446 23.0377 120.446 23.172C120.504 23.6259 120.294 23.8561 119.907 23.8753C118.906 23.9584 117.902 23.984 116.898 23.952C116.711 23.8972 116.537 23.8034 116.389 23.6768C116.24 23.5501 116.119 23.3934 116.035 23.2167C115.4 22.0274 114.835 20.8061 114.289 19.5721C113.806 18.4787 113.381 17.3597 112.924 16.2535C112.848 16.0553 112.746 15.8763 112.658 15.6844L112.569 15.7036Z" fill="#FAEED6"/>
<path d="M135.859 13.1015C135.719 14.7448 135.688 16.4073 135.415 18.0186C135.25 19.3633 134.661 20.6191 133.734 21.6011C132.807 22.583 131.592 23.2392 130.267 23.4728C129.091 23.7459 127.875 23.8001 126.68 23.6327C124.471 23.2938 122.954 21.7592 122.135 19.534C120.892 16.179 120.706 12.5195 121.602 9.05403C122.313 6.21503 124.179 4.7188 126.744 4.15612H126.807C131.327 3.14585 134.571 5.6012 135.434 10.6973C135.567 11.4902 135.65 12.2895 135.751 13.0887L135.859 13.1015ZM132.006 14.0159C131.956 12.4906 131.446 11.0167 130.546 9.78937C130.368 9.52674 130.132 9.30886 129.857 9.15255C129.581 8.99624 129.274 8.90566 128.959 8.88779C128.318 8.84881 127.68 8.99931 127.123 9.32079C126.566 9.64228 126.114 10.1207 125.823 10.6973C124.987 12.3429 124.827 14.254 125.379 16.0172C126.013 18.3383 127.118 19.08 129.283 18.7092C129.967 18.6261 130.6 18.3032 131.071 17.7969C131.542 17.2906 131.822 16.6334 131.86 15.9405C131.968 15.3075 131.968 14.6553 132.006 14.0159V14.0159Z" fill="#FAEED6"/>
<path d="M143.572 15.1349L143.972 21.5802C144.023 22.405 143.934 22.5074 143.178 22.5585L140.601 22.7247C139.712 22.7759 139.636 22.7247 139.573 21.6953C139.344 17.9824 139.118 14.2674 138.893 10.5503C138.855 9.98762 138.811 9.43134 138.76 8.87505C138.728 8.44024 138.525 8.23563 138.125 8.23563C137.573 8.23563 137.021 8.23563 136.469 8.23563C136.088 8.23563 135.904 8.04382 135.878 7.6282C135.815 6.50923 135.732 5.39026 135.656 4.27128C135.656 3.86845 135.745 3.63187 136.151 3.63187C138.951 3.45283 141.744 3.23544 144.543 3.07558C145.552 3.01804 145.552 3.07558 145.648 4.16897C145.717 5.00021 145.8 5.82506 145.857 6.6499C145.914 7.64099 145.819 7.7433 144.937 7.76887C144.568 7.76887 144.2 7.80724 143.832 7.76887C143.356 7.76887 143.197 7.97988 143.197 8.50419C143.35 10.6974 143.477 12.8906 143.61 15.0838L143.572 15.1349Z" fill="#FAEED6"/>
</svg>
