<svg width="226" height="40" viewBox="0 0 226 40" fill="none" xmlns="http://www.w3.org/2000/svg">
<path d="M47.6587 39.3551C49.3581 39.2794 49.6118 39.0067 49.6118 37.1387L49.3987 19.6604V10.8758C49.3987 7.90213 49.3429 4.92345 49.3987 1.95486C49.4241 0.677552 48.932 0.208022 47.8312 0.243363C46.0962 0.298897 44.3613 0.389773 42.6314 0.354433C41.5256 0.334238 40.9726 0.758324 40.9726 1.98009C40.9168 5.73122 40.7697 2.697 40.7697 6.44308C40.7545 10.7041 40.7951 10.7041 36.8636 10.7041C34.4539 10.6991 34.4539 10.6991 34.3829 8.07883C34.2561 3.6007 34.114 5.90287 34.0176 1.41969C33.9923 0.354426 33.5864 -0.00907579 32.6175 0.0313132C31.0551 0.112091 29.4875 0.0313132 27.9251 0.0313132C25.6778 0.0313132 25.551 0.142383 25.551 2.55563C25.5611 9.96702 25.5662 17.3784 25.6118 24.7949C25.6423 28.9549 25.7387 33.1201 25.8249 37.2801C25.8706 39.2339 26.3677 39.8044 28.1889 39.8953C29.7513 39.971 31.3138 39.9811 32.8762 39.9407C34.8344 39.8903 34.8344 39.8347 34.8344 37.7345C34.804 34.0389 34.7684 30.3332 34.6923 26.6275C34.672 25.6784 34.5379 18.7751 35.5243 18.4033C36.8636 17.8984 38.568 17.646 39.8363 18.1509C40.8255 18.1509 40.7646 25.022 40.8255 26.6881C40.9574 30.3938 41.1552 34.0944 41.2871 37.7951C41.3378 39.1027 41.8249 39.7035 43.0931 39.5823C44.615 39.446 46.1368 39.4207 47.6587 39.3551Z" fill="#0B0B0C"/>
<path d="M18.3474 39.7179C13.7006 39.6927 8.38928 39.9905 4.80274 36.5928C0.0189873 32.049 -0.209287 24.6427 0.0849416 18.1249C0.521212 8.55778 7.52182 1.11609 16.8255 0.570839C18.1749 0.490061 19.5243 0.439578 20.8839 0.384043C21.9948 0.338605 22.6492 0.772793 22.5934 2.12583C22.5326 3.64041 22.5681 5.155 22.5579 6.66959C22.5579 7.61369 22.1673 8.23972 21.2694 8.42147C19.6968 8.73448 18.1039 8.9768 16.5465 9.3706C12.7824 10.3349 9.7539 12.9046 9.03862 17.0142C8.37914 20.8158 9.29733 26.1825 10.2155 27.8385C11.7374 30.6152 14.5833 31.3019 18.8395 31.2463C21.939 31.943 21.8578 30.1306 22.0303 34.2099C22.0861 35.4872 22.2079 36.7594 22.3296 38.0367C22.4362 39.1222 22.0151 39.7028 21.0056 39.7331C20.1178 39.7331 19.2352 39.7179 18.3474 39.7179Z" fill="#0B0B0C"/>
<path d="M64.1761 2.69693V20.1248L64.0696 37.1185C64.0696 39.5469 64.3537 39.9659 66.5756 39.9912C70.2535 40.0315 73.9313 39.9255 77.6041 39.8952C78.2788 39.8902 78.644 39.6125 78.6187 38.8451C78.5409 36.2434 78.458 35.1546 78.3701 32.5495C78.3447 31.7063 77.9135 31.3227 77.1526 31.3227C76.138 31.3529 74.6161 31.3227 73.5711 31.3227C72.5261 31.3227 71.8514 31.1106 71.8058 30.0151C71.7297 28.344 71.8463 25.1431 71.7956 23.4518C71.8058 16.8886 71.9174 10.0831 71.7094 3.40878C71.6333 0.899609 71.3492 0.611837 68.9801 0.647177C67.8844 0.667372 66.8749 0.828934 65.698 0.859226C64.521 0.889518 64.1761 1.51556 64.1761 2.69693Z" fill="#0B0B0C"/>
<path d="M60.8076 38.1832C60.7721 32.1955 60.8076 26.2129 60.8076 20.2252L60.9446 13.1117C60.9547 11.8192 60.5388 11.2437 59.3314 11.3144C57.7334 11.4053 56.1253 11.5315 54.5274 11.481C53.1678 11.4406 52.8178 12.0515 52.8178 13.4298C52.8533 18.9631 52.7772 13.4853 52.7772 19.0388C52.7519 25.39 52.7366 31.7411 52.696 38.0923C52.6859 39.2787 52.9294 40.0159 54.2483 39.9401C55.8919 39.8425 57.5395 39.8307 59.1843 39.9048C60.3764 39.9553 60.8076 39.5362 60.8076 38.1832Z" fill="#0B0B0C"/>
<path d="M59.1843 9.3811C60.3764 9.43158 60.8076 9.0075 60.8076 7.65951L60.9446 1.8031C60.9547 0.510648 60.5388 -0.0648943 59.3314 0.00578654C57.7334 0.0966619 56.1254 0.222886 54.5274 0.1724C53.1678 0.132011 52.8178 0.742893 52.8178 2.12622C52.8533 7.65447 52.7772 2.20193 52.7772 7.73018C52.7743 9.08724 53.7567 9.41643 54.2484 9.41139C55.892 9.31548 57.5396 9.30537 59.1843 9.3811Z" fill="#0B0B0C"/>
<path d="M89.2924 38.1832C89.2569 32.1955 89.2924 26.2129 89.2924 20.2252L89.4293 13.1117C89.4395 11.8192 89.0235 11.2437 87.8161 11.3144C86.2182 11.4053 84.6101 11.5315 83.0121 11.481C81.6526 11.4406 81.3026 12.0515 81.3026 13.4298C81.3381 18.9631 81.262 13.4853 81.262 19.0388C81.2366 25.39 81.2214 31.7411 81.1808 38.0923C81.1706 39.2787 81.4141 40.0159 82.7331 39.9401C84.3766 39.8425 86.0242 39.8307 87.669 39.9048C88.8612 39.9553 89.2924 39.5362 89.2924 38.1832Z" fill="#0B0B0C"/>
<path d="M87.669 9.3811C88.8612 9.43158 89.2924 9.0075 89.2924 7.65951L89.4293 1.8031C89.4395 0.510648 89.0235 -0.0648943 87.8162 0.00578654C86.2182 0.0966619 84.6101 0.222886 83.0121 0.1724C81.6526 0.132011 81.3026 0.742893 81.3026 2.12622C81.3381 7.65447 81.262 2.20193 81.262 7.73018C81.259 9.08724 82.2415 9.41643 82.7331 9.41139C84.3767 9.31548 86.0243 9.30537 87.669 9.3811Z" fill="#0B0B0C"/>
<path d="M157.242 39.2412C158.936 39.1657 159.189 38.8939 159.189 37.0313L158.977 19.6035V10.8444C158.977 7.87934 158.921 4.90928 158.977 1.94928C159.002 0.675672 158.511 0.207502 157.414 0.24274C155.684 0.298114 153.954 0.388727 152.229 0.353489C151.126 0.333353 150.575 0.75621 150.575 1.97444C150.519 5.71471 150.373 2.68927 150.373 6.42451C150.357 10.6732 150.398 10.6732 146.478 10.6732C144.075 10.6682 144.075 10.6682 144.004 8.05552C143.878 3.59035 143.736 5.88586 143.64 1.41566C143.615 0.353482 143.21 -0.00896752 142.244 0.0313046C140.686 0.111849 139.123 0.0313046 137.565 0.0313046C135.324 0.0313046 135.198 0.142053 135.198 2.54831C135.208 9.93824 135.213 17.3282 135.259 24.7231C135.289 28.8712 135.385 33.0242 135.471 37.1723C135.517 39.1204 136.012 39.6893 137.828 39.7799C139.386 39.8554 140.944 39.8655 142.502 39.8252C144.455 39.7748 144.455 39.7195 144.455 37.6253C144.424 33.9404 144.389 30.2455 144.313 26.5505C144.293 25.6041 144.159 18.7209 145.142 18.3501C146.478 17.8467 148.177 17.595 149.442 18.0984C150.428 18.0984 150.368 24.9497 150.428 26.6109C150.56 30.3059 150.757 33.9958 150.889 37.6857C150.939 38.9895 151.425 39.5886 152.689 39.4678C154.207 39.3319 155.724 39.3067 157.242 39.2412Z" fill="#0B0B0C"/>
<path d="M128.015 39.6031C123.382 39.5779 118.086 39.8749 114.51 36.487C109.74 31.9564 109.512 24.5715 109.806 18.0726C110.241 8.53313 117.221 1.11299 126.498 0.569313C127.843 0.488769 129.189 0.438431 130.544 0.383057C131.652 0.337751 132.305 0.770682 132.249 2.1198C132.188 3.63 132.224 5.1402 132.214 6.65041C132.214 7.59177 131.824 8.21599 130.929 8.39721C129.361 8.70932 127.773 8.95094 126.22 9.34359C122.466 10.3051 119.447 12.8674 118.734 16.9651C118.076 20.7557 118.991 26.1069 119.907 27.758C121.424 30.5267 124.262 31.2114 128.506 31.156C131.597 31.8507 131.516 30.0435 131.688 34.1109C131.743 35.3845 131.865 36.6531 131.986 37.9267C132.092 39.009 131.672 39.5879 130.666 39.6182C129.781 39.6182 128.901 39.6031 128.015 39.6031Z" fill="#0B0B0C"/>
<path d="M173.711 2.68904V20.0665L173.605 37.0109C173.605 39.4323 173.888 39.8501 176.104 39.8753C179.771 39.9156 183.438 39.8099 187.1 39.7797C187.773 39.7746 188.137 39.4977 188.112 38.7326C188.035 36.1384 187.952 35.0527 187.864 32.4552C187.839 31.6145 187.409 31.2319 186.65 31.2319C185.639 31.2621 184.121 31.2319 183.079 31.2319C182.037 31.2319 181.364 31.0205 181.319 29.9281C181.243 28.2618 181.359 25.0703 181.309 23.3839C181.319 16.8397 181.43 10.0538 181.223 3.39882C181.147 0.896918 180.864 0.609978 178.501 0.645216C177.409 0.665352 176.402 0.826447 175.229 0.856652C174.055 0.886856 173.711 1.51108 173.711 2.68904Z" fill="#0B0B0C"/>
<path d="M190.759 2.68904V20.0665L190.653 37.0109C190.653 39.4323 190.936 39.8501 193.151 39.8753C196.819 39.9156 200.486 39.8099 204.148 39.7797C204.821 39.7746 205.185 39.4977 205.16 38.7326C205.082 36.1384 204.999 35.0527 204.912 32.4552C204.886 31.6145 204.456 31.2319 203.698 31.2319C202.686 31.2621 201.169 31.2319 200.127 31.2319C199.085 31.2319 198.412 31.0205 198.366 29.9281C198.29 28.2618 198.407 25.0703 198.356 23.3839C198.366 16.8397 198.478 10.0538 198.27 3.39882C198.194 0.896918 197.911 0.609978 195.549 0.645216C194.456 0.665352 193.45 0.826447 192.276 0.856652C191.103 0.886856 190.759 1.51108 190.759 2.68904Z" fill="#0B0B0C"/>
<path d="M214.795 14.2185C215.377 12.5015 216.016 10.7846 216.554 9.05313C217.194 6.92879 217.79 4.80446 218.357 2.65102C218.411 2.28852 218.599 1.95973 218.885 1.73044C219.171 1.50115 219.532 1.38824 219.897 1.41424C221.438 1.41424 222.994 1.41424 224.535 1.41424C226.075 1.41424 226.235 1.79253 225.77 3.21846C224.316 7.58354 223.052 11.9486 221.409 16.1682C218.124 24.7674 218.066 24.7237 218.11 34.0796C218.11 35.5346 218.11 36.9023 218.11 38.3137C218.11 39.3177 217.732 39.7687 216.874 39.7687C214.955 39.7687 213.022 39.7687 211.059 39.7687C210.216 39.7687 209.737 39.2013 209.693 38.3137C209.554 36.8629 209.525 35.4038 209.606 33.9486C210.282 28.0154 209.442 22.0075 207.164 16.4883C205.318 12.0214 204.009 7.29256 202.396 2.69467C202.003 1.5452 202.28 1.02139 203.355 1.00684C205.652 1.00684 207.949 1.00684 210.245 1.00684C211.365 1.00684 211.699 1.9817 211.873 2.95657C212.6 6.23038 213.327 9.50419 214.01 12.778C214.098 13.2145 214.214 13.651 214.316 14.0875L214.795 14.2185Z" fill="#0B0B0C"/>
<path d="M170.353 38.0732C170.317 32.1028 170.353 26.1375 170.353 20.1672L170.489 13.0742C170.499 11.7855 170.085 11.2117 168.881 11.2821C167.287 11.3727 165.684 11.4986 164.091 11.4483C162.735 11.408 162.386 12.0171 162.386 13.3914C162.421 18.9087 162.345 13.4468 162.345 18.9842C162.32 25.317 162.305 31.6498 162.265 37.9825C162.254 39.1655 162.497 39.9005 163.812 39.825C165.451 39.7277 167.094 39.7159 168.734 39.7898C169.923 39.8401 170.353 39.4223 170.353 38.0732Z" fill="#0B0B0C"/>
<path d="M168.734 9.35394C169.923 9.40427 170.353 8.98142 170.353 7.63733L170.489 1.79788C170.499 0.50917 170.085 -0.0647064 168.881 0.00576978C167.287 0.096382 165.684 0.222241 164.091 0.171901C162.735 0.131629 162.386 0.740742 162.386 2.12006C162.421 7.63231 162.345 2.19556 162.345 7.7078C162.342 9.06093 163.322 9.38916 163.812 9.38414C165.451 9.28851 167.094 9.27843 168.734 9.35394Z" fill="#0B0B0C"/>
<path d="M105.358 1.12074L106.66 29.5665L106.677 38.4972L99.1177 39.8838H93.8461L93.4717 30.1365L92.8803 19.6908L92.4732 1.89107L96.4432 0.504469H100.901L105.358 1.12074Z" fill="#0B0B0C"/>
<path d="M97.8311 9.72966C97.8311 9.92017 97.8311 10.1142 97.8311 10.3082C97.8772 11.5818 97.9162 12.8554 97.98 14.1289C97.98 14.4817 97.9056 14.5946 97.5901 14.5946C97.2013 14.5945 96.8129 14.6192 96.4274 14.6687C96.1083 14.711 95.9772 14.5523 95.9524 14.2489C95.9134 13.7409 95.8815 13.2364 95.8531 12.7284C95.716 10.0378 95.5802 7.34364 95.4455 4.64599C95.4136 4.04272 95.4455 3.96864 96.0233 3.89808C96.4061 3.84869 96.796 3.84163 97.1824 3.79577C97.3106 3.77489 97.4419 3.80238 97.5508 3.87286C97.6596 3.94333 97.7381 4.05172 97.7709 4.17678C98.3274 5.42917 98.9017 6.67099 99.4688 7.91633C99.5078 8.00453 99.5575 8.08214 99.6496 8.26912C99.6496 8.03981 99.6496 7.91633 99.6496 7.78227C99.6177 6.67099 99.5823 5.55971 99.5575 4.4449C99.5575 3.88044 99.6532 3.77107 100.16 3.76754C100.49 3.76754 100.823 3.74285 101.153 3.72874C101.613 3.7111 101.695 3.79224 101.72 4.28614L102.23 13.628C102.23 13.7021 102.23 13.7761 102.23 13.8502C102.262 14.1007 102.145 14.2277 101.929 14.2383C101.37 14.2841 100.809 14.2983 100.249 14.2806C100.144 14.2504 100.047 14.1986 99.9644 14.1287C99.8813 14.0589 99.8139 13.9724 99.7666 13.8749C99.4121 13.2187 99.0966 12.5449 98.7918 11.864C98.5224 11.2608 98.2849 10.6434 98.0296 10.0331C97.9871 9.92369 97.9304 9.82492 97.8808 9.71908L97.8311 9.72966Z" fill="#FAEED6"/>
<path d="M103.559 20.0989C103.481 21.0055 103.463 21.9228 103.31 22.8118C103.218 23.5537 102.889 24.2466 102.372 24.7884C101.854 25.3302 101.175 25.6922 100.436 25.8211C99.7789 25.9718 99.1001 26.0017 98.4327 25.9093C97.1991 25.7223 96.3519 24.8756 95.8946 23.6479C95.2004 21.7968 95.0964 19.7777 95.5968 17.8657C95.9938 16.2993 97.036 15.4738 98.4682 15.1634H98.5036C101.028 14.6059 102.839 15.9607 103.321 18.7724C103.395 19.2098 103.442 19.6508 103.498 20.0918L103.559 20.0989ZM101.407 20.6033C101.379 19.7618 101.094 18.9486 100.592 18.2714C100.492 18.1265 100.36 18.0063 100.207 17.9201C100.053 17.8338 99.8814 17.7839 99.7053 17.774C99.3474 17.7525 98.991 17.8355 98.6799 18.0129C98.3688 18.1903 98.1165 18.4542 97.9541 18.7724C97.487 19.6803 97.3979 20.7347 97.706 21.7076C98.0605 22.9882 98.6773 23.3974 99.8861 23.1928C100.268 23.147 100.622 22.9688 100.885 22.6895C101.148 22.4102 101.304 22.0476 101.325 21.6652C101.386 21.316 101.386 20.9561 101.407 20.6033V20.6033Z" fill="#FAEED6"/>
<path d="M101.605 33.3572L101.828 36.9133C101.856 37.3684 101.807 37.4248 101.385 37.453L99.9457 37.5448C99.4494 37.573 99.4069 37.5448 99.3714 36.9768C99.2438 34.9283 99.1174 32.8786 98.9921 30.8277C98.9709 30.5172 98.9461 30.2103 98.9177 29.9034C98.9 29.6635 98.7865 29.5506 98.5632 29.5506C98.2548 29.5506 97.9464 29.5506 97.638 29.5506C97.4253 29.5506 97.3225 29.4448 97.3083 29.2155C97.2729 28.5981 97.2268 27.9807 97.1843 27.3633C97.1843 27.1411 97.2339 27.0105 97.4608 27.0105C99.024 26.9118 100.584 26.7918 102.147 26.7036C102.711 26.6719 102.711 26.7036 102.764 27.3069C102.803 27.7655 102.849 28.2206 102.881 28.6757C102.913 29.2225 102.86 29.279 102.367 29.2931C102.161 29.2931 101.956 29.3142 101.75 29.2931C101.484 29.2931 101.396 29.4095 101.396 29.6988C101.481 30.9088 101.552 32.1189 101.626 33.329L101.605 33.3572Z" fill="#FAEED6"/>
</svg>
